<svg aria-hidden="true" style="position: absolute; width: 0; height: 0; overflow: hidden;" version="1.1" xmlns="http://www.w3.org/2000/svg" xmlns:xlink="http://www.w3.org/1999/xlink">
<defs>
<symbol id="icon-acount" viewBox="0 0 32 32">
<path d="M15.89 29.457c-7.645 0-13.842-6.198-13.842-13.842 0-7.645 6.197-13.843 13.841-13.843 7.647 0 13.843 6.198 13.843 13.842 0 7.645-6.197 13.843-13.843 13.843zM15.889 30.994c8.495 0 15.381-6.886 15.381-15.379 0-8.495-6.886-15.381-15.379-15.381-8.495 0-15.381 6.887-15.381 15.381s6.887 15.379 15.381 15.379z"></path>
<path d="M6.662 24.557c0-0.793 0.594-1.465 1.384-1.553 5.933-0.657 9.781-0.598 15.702 0.014 0.774 0.083 1.371 0.733 1.371 1.522 0 0.457-0.2 0.867-0.518 1.148l-0.002 0.001c-6.987 6.090-10.979 6.006-17.447 0.006-0.303-0.284-0.491-0.687-0.491-1.133 0-0.001 0-0.003 0-0.004v0z"></path>
<path d="M23.669 23.784c-5.874-0.608-9.667-0.665-15.539-0.015-0.398 0.045-0.705 0.379-0.705 0.786 0 0.228 0.096 0.433 0.251 0.577l0 0c3.206 2.972 5.635 4.316 8.008 4.324 2.382 0.008 4.942-1.325 8.41-4.346 0.157-0.14 0.256-0.343 0.256-0.569 0-0.392-0.297-0.715-0.678-0.757l-0.003-0zM7.961 22.24c5.995-0.664 9.901-0.604 15.866 0.014 1.163 0.126 2.059 1.102 2.059 2.287 0 0.687-0.302 1.304-0.78 1.726l-0.003 0.002c-3.517 3.066-6.447 4.737-9.425 4.725-2.987-0.010-5.788-1.709-9.049-4.735-0.454-0.425-0.737-1.028-0.737-1.697 0-0.002 0-0.003 0-0.005v0c0-0.001 0-0.002 0-0.004 0-1.194 0.899-2.178 2.057-2.313l0.011-0.001z"></path>
<path d="M22.041 12.538c0 0.028 0.001 0.060 0.001 0.093 0 3.398-2.755 6.152-6.152 6.152s-6.152-2.755-6.152-6.152c0-0.033 0-0.065 0.001-0.097l-0 0.005c0.052-3.358 2.786-6.060 6.152-6.060s6.1 2.702 6.152 6.055l0 0.005z"></path>
<path d="M15.889 17.152v0c-2.548 0-4.614-2.066-4.614-4.614s2.066-4.614 4.614-4.614v0c2.548 0 4.614 2.066 4.614 4.614s-2.066 4.614-4.614 4.614zM15.889 18.691c0 0 0 0 0.001 0 3.397 0 6.152-2.754 6.152-6.152s-2.754-6.151-6.151-6.152h-0c-3.397 0-6.152 2.754-6.152 6.152s2.754 6.152 6.152 6.152v0z"></path>
</symbol>
<symbol id="icon-basket" viewBox="0 0 32 32">
<path stroke-linejoin="round" stroke-linecap="butt" stroke-miterlimit="4" stroke-width="2.3584" d="M7.157 9.851h17.616c1.411 0 2.555 1.144 2.555 2.555 0 0.089-0.005 0.178-0.014 0.265l0.001-0.011-0.767 7.665c-0.133 1.297-1.22 2.301-2.542 2.301h-12.198c-0 0-0.001 0-0.001 0-1.234 0-2.263-0.875-2.502-2.038l-0.003-0.017-2.144-10.72z"></path>
<path stroke-linejoin="round" stroke-linecap="round" stroke-miterlimit="4" stroke-width="2.3584" d="M7.157 9.851l-1.035-4.144c-0.144-0.56-0.644-0.967-1.239-0.967h-1.557M10.99 27.733h2.554M21.21 27.733h2.554"></path>
</symbol>
<symbol id="icon-open-menu" viewBox="0 0 34 32">
<path d="M33.088 3.584c0-0.567-0.218-1.111-0.605-1.512-0.37-0.384-0.888-0.624-1.463-0.625h-28.953c-0.549 0-1.074 0.224-1.463 0.625-0.387 0.401-0.605 0.945-0.605 1.512 0 0.568 0.218 1.112 0.606 1.513 0.387 0.401 0.914 0.625 1.463 0.625h28.952c0.549 0 1.073-0.224 1.461-0.625 0.387-0.402 0.605-0.945 0.605-1.513zM33.088 29.242c0-0.567-0.218-1.111-0.605-1.512-0.389-0.401-0.914-0.625-1.463-0.625h-28.952c-0.549 0-1.074 0.224-1.463 0.625-0.387 0.402-0.605 0.945-0.605 1.512 0 0.568 0.218 1.112 0.606 1.513 0.387 0.401 0.914 0.625 1.463 0.625h28.952c0.549 0 1.073-0.224 1.461-0.625 0.387-0.402 0.605-0.945 0.605-1.512zM31.020 14.275c0.549 0 1.074 0.226 1.463 0.625 0.387 0.402 0.605 0.945 0.605 1.513 0 0.567-0.218 1.111-0.605 1.512-0.389 0.401-0.914 0.626-1.463 0.626h-16.544c-0.549 0-1.074-0.226-1.463-0.626-0.374-0.39-0.605-0.921-0.605-1.505 0-0.002 0-0.005 0-0.007v0c0-0.567 0.218-1.112 0.605-1.512 0.389-0.401 0.914-0.626 1.463-0.626h16.544z"></path>
</symbol>
<symbol id="icon-logo-img" viewBox="0 0 39 32">
<path d="M19.656 11.821l-1.393-0.822 1.393 1.963 1.394-1.963-1.393 0.822zM19.676 8.423l-1.393 2.312 1.393 0.824 1.393-0.823-1.393-2.313z"></path>
</symbol>
</defs>
</svg>
